<svg version="1.1" id="Calque_1" xmlns="http://www.w3.org/2000/svg" xmlns:xlink="http://www.w3.org/1999/xlink" x="0px" y="0px" viewBox="0 0 47 38" style="enable-background:new 0 0 47 38;" xml:space="preserve">
<style type="text/css">
	.st0{fill:#FFFFFF;}
</style>
<path class="st0" d="M42.9,8.2H3.9c-2,0-3.6-1.6-3.6-3.6V3.8c0-2,1.6-3.6,3.6-3.6h39.1c2,0,3.6,1.6,3.6,3.6v0.8  C46.6,6.6,45,8.2,42.9,8.2"/>
<path class="st0" d="M42.9,22.9H3.9c-2,0-3.6-1.6-3.6-3.6v-0.1c0-2,1.6-3.6,3.6-3.6h39.1c2,0,3.6,1.6,3.6,3.6v0.1  C46.6,21.3,45,22.9,42.9,22.9"/>
<path class="st0" d="M42.9,37.9H3.9c-2,0-3.6-1.6-3.6-3.6v-0.1c0-2,1.6-3.6,3.6-3.6h39.1c2,0,3.6,1.6,3.6,3.6v0.1  C46.6,36.3,45,37.9,42.9,37.9"/>
</svg>
