<svg class="svg-tablette" version="1.1" xmlns="http://www.w3.org/2000/svg" xmlns:xlink="http://www.w3.org/1999/xlink" xmlns:a="http://ns.adobe.com/AdobeSVGViewerExtensions/3.0/" x="0px" y="0px" width="167.7px" height="75.5px" viewBox="0 0 167.7 75.5" style="enable-background:new 0 0 167.7 75.5;" xml:space="preserve">
<defs>
</defs>
<path class="st0" d="M104.3,74.5h-98c-2.9,0-5.3-2.4-5.3-5.3v-63C1,3.4,3.4,1,6.3,1h98c2.9,0,5.3,2.4,5.3,5.3v63
	C109.5,72.1,107.1,74.5,104.3,74.5z" style="fill: none; stroke: #FFF;"></path>
<path class="st1" d="M4.7,37.8c0-1.7,1.3-3,3-3s3,1.3,3,3c0,1.7-1.3,3-3,3S4.7,39.4,4.7,37.8z M9.7,37.8c0-1.1-0.9-2-2-2s-2,0.9-2,2
	s0.9,2,2,2S9.7,38.9,9.7,37.8z M12.1,4.7h90.3v66.2H12.1V4.7z" style="fill: none; stroke: #FFF;"></path>
<path class="st0" d="M162.6,11.6c-0.2,0,0.2,0-0.8,0v0c-2-0.3-6.1-0.4-9.3-0.4c-2.4,0-4.7,0-6.7,0.2v0c-1,0.1-2.6,0.1-3.7,0.2
	c-3.7,0.3-4.2,3-4.1,6.1l0,42c-0.1,3.1,0.3,6.4,4.3,6.7c1.1,0.1,2.7,0.2,3.7,0.3v0.1c2,0.1,4.3,0.2,6.6,0.2c3.3,0,7.4-0.1,9.4-0.4v0
	c1,0,0.6,0,0.8-0.1c3.9-0.3,4.2-3.6,4.1-6.7l0-42C166.7,14.6,166.3,11.9,162.6,11.6z" style="fill: none; stroke: #FFF;"></path>
<rect x="142.3" y="19.3" class="st1" width="21" height="40" style="fill: none; stroke: #FFF;"></rect>
<g>
	<path class="st2" d="M145.4,43.2v-6.4h2.5c2.5,0,2.5,4,0,4h-1.2v2.5H145.4z M147.8,39.5c0.9,0,0.9-1.4,0-1.4h-1.1v1.4H147.8z" style="fill: #FFF;"></path>
	<path class="st2" d="M150.4,36.7h2.5c1.1,0,1.8,0.8,1.8,2c0,0.5-0.2,1-0.6,1.3c0.4,0.3,0.7,0.8,0.7,1.3c0,1.1-0.9,1.9-1.9,1.9h-2.5
		V36.7z M151.7,39.3h0.8h0.4c0.4,0,0.6-0.3,0.6-0.6c0-0.4-0.2-0.6-0.6-0.6h-1.1V39.3z M151.7,41.9h0.8h0.4c0.4,0,0.6-0.3,0.6-0.6
		s-0.3-0.6-0.6-0.6h-1.1V41.9z" style="fill: #FFF;"></path>
	<path class="st2" d="M157.6,36.5h0.1l2.7,6.7H159l-0.3-0.7h-2.1l-0.3,0.7h-1.5L157.6,36.5z M158.3,41.3l-0.6-1.7l-0.6,1.7H158.3z" style="fill: #FFF;"></path>
</g>
<g>
	<path class="st2" d="M37.5,45.7V29h6.5c6.5,0,6.4,10.3,0,10.3h-3.2v6.4H37.5z M43.8,36c2.2,0,2.2-3.7,0-3.7h-2.9V36H43.8z" style="fill: #FFF;"></path>
	<path class="st2" d="M50.4,28.9H57c2.9,0,4.8,2.1,4.7,5.1c0,1.3-0.5,2.6-1.5,3.3c1.1,0.7,1.7,2,1.7,3.3c0,2.8-2.2,5-4.9,5h-6.6
		V28.9z M53.7,35.6h2h1c1,0,1.5-0.8,1.5-1.7c0-0.9-0.6-1.7-1.5-1.7h-2.9V35.6z M53.7,42.3h2h1c1,0,1.7-0.7,1.7-1.7S57.6,39,56.7,39
		h-2.9V42.3z" style="fill: #FFF;"></path>
	<path class="st2" d="M69.2,28.4h0.3l7,17.3h-3.7l-0.7-1.8h-5.5L66,45.7h-3.8L69.2,28.4z M70.9,40.7l-1.5-4.3l-1.6,4.3H70.9z" style="fill: #FFF"></path>
</g>
</svg>
